<mxfile host="app.diagrams.net" modified="2022-09-06T14:10:12.286Z" agent="5.0 (Windows NT 10.0; Win64; x64) AppleWebKit/537.36 (KHTML, like Gecko) Chrome/105.0.0.0 Safari/537.36" etag="rbQfdI70hRo_pLQbR7ra" version="20.2.8" type="github">
  <diagram id="R2lEEEUBdFMjLlhIrx00" name="Page-1">
    <mxGraphModel dx="1240" dy="668" grid="1" gridSize="10" guides="1" tooltips="1" connect="1" arrows="1" fold="1" page="1" pageScale="1" pageWidth="850" pageHeight="1100" math="0" shadow="0" extFonts="Permanent Marker^https://fonts.googleapis.com/css?family=Permanent+Marker">
      <root>
        <mxCell id="0" />
        <mxCell id="1" parent="0" />
        <mxCell id="AEvw3j2be58xQNeynocf-2" value="Category" style="whiteSpace=wrap;html=1;align=center;fillColor=#fff2cc;strokeColor=#d6b656;" vertex="1" parent="1">
          <mxGeometry x="560" y="150" width="100" height="40" as="geometry" />
        </mxCell>
        <mxCell id="AEvw3j2be58xQNeynocf-9" value="" style="endArrow=none;html=1;rounded=0;entryX=0.5;entryY=0;entryDx=0;entryDy=0;" edge="1" parent="1" target="AEvw3j2be58xQNeynocf-2">
          <mxGeometry relative="1" as="geometry">
            <mxPoint x="610" y="80" as="sourcePoint" />
            <mxPoint x="470" y="310" as="targetPoint" />
          </mxGeometry>
        </mxCell>
        <mxCell id="AEvw3j2be58xQNeynocf-10" value="1" style="resizable=0;html=1;align=right;verticalAlign=bottom;" connectable="0" vertex="1" parent="AEvw3j2be58xQNeynocf-9">
          <mxGeometry x="1" relative="1" as="geometry" />
        </mxCell>
        <mxCell id="AEvw3j2be58xQNeynocf-11" value="category_ID" style="ellipse;whiteSpace=wrap;html=1;align=center;fontStyle=4;" vertex="1" parent="1">
          <mxGeometry x="560" y="40" width="100" height="40" as="geometry" />
        </mxCell>
        <mxCell id="AEvw3j2be58xQNeynocf-12" value="" style="endArrow=none;html=1;rounded=0;entryX=1;entryY=0.5;entryDx=0;entryDy=0;" edge="1" parent="1" target="AEvw3j2be58xQNeynocf-2">
          <mxGeometry relative="1" as="geometry">
            <mxPoint x="760" y="80" as="sourcePoint" />
            <mxPoint x="620" y="160" as="targetPoint" />
            <Array as="points">
              <mxPoint x="760" y="80" />
            </Array>
          </mxGeometry>
        </mxCell>
        <mxCell id="AEvw3j2be58xQNeynocf-13" value="1" style="resizable=0;html=1;align=right;verticalAlign=bottom;" connectable="0" vertex="1" parent="AEvw3j2be58xQNeynocf-12">
          <mxGeometry x="1" relative="1" as="geometry">
            <mxPoint x="20" y="-20" as="offset" />
          </mxGeometry>
        </mxCell>
        <mxCell id="AEvw3j2be58xQNeynocf-19" value="" style="endArrow=none;html=1;rounded=0;entryX=0.5;entryY=1;entryDx=0;entryDy=0;" edge="1" parent="1" target="AEvw3j2be58xQNeynocf-2">
          <mxGeometry relative="1" as="geometry">
            <mxPoint x="610" y="260" as="sourcePoint" />
            <mxPoint x="470" y="310" as="targetPoint" />
          </mxGeometry>
        </mxCell>
        <mxCell id="AEvw3j2be58xQNeynocf-20" value="has" style="shape=rhombus;perimeter=rhombusPerimeter;whiteSpace=wrap;html=1;align=center;" vertex="1" parent="1">
          <mxGeometry x="550" y="240" width="120" height="60" as="geometry" />
        </mxCell>
        <mxCell id="AEvw3j2be58xQNeynocf-21" value="" style="endArrow=none;html=1;rounded=0;entryX=0.5;entryY=1;entryDx=0;entryDy=0;" edge="1" parent="1" target="AEvw3j2be58xQNeynocf-20">
          <mxGeometry relative="1" as="geometry">
            <mxPoint x="610" y="360" as="sourcePoint" />
            <mxPoint x="470" y="390" as="targetPoint" />
          </mxGeometry>
        </mxCell>
        <mxCell id="AEvw3j2be58xQNeynocf-22" value="Product" style="whiteSpace=wrap;html=1;align=center;fillColor=#fff2cc;strokeColor=#d6b656;" vertex="1" parent="1">
          <mxGeometry x="560" y="360" width="100" height="40" as="geometry" />
        </mxCell>
        <mxCell id="AEvw3j2be58xQNeynocf-23" value="product_ID" style="ellipse;whiteSpace=wrap;html=1;align=center;fontStyle=4;" vertex="1" parent="1">
          <mxGeometry x="710" y="300" width="100" height="40" as="geometry" />
        </mxCell>
        <mxCell id="AEvw3j2be58xQNeynocf-24" value="category_Name" style="ellipse;whiteSpace=wrap;html=1;align=center;" vertex="1" parent="1">
          <mxGeometry x="710" y="40" width="100" height="40" as="geometry" />
        </mxCell>
        <mxCell id="AEvw3j2be58xQNeynocf-25" value="product_Name" style="ellipse;whiteSpace=wrap;html=1;align=center;" vertex="1" parent="1">
          <mxGeometry x="710" y="360" width="100" height="40" as="geometry" />
        </mxCell>
        <mxCell id="AEvw3j2be58xQNeynocf-27" value="product_price" style="ellipse;whiteSpace=wrap;html=1;align=center;" vertex="1" parent="1">
          <mxGeometry x="710" y="420" width="100" height="40" as="geometry" />
        </mxCell>
        <mxCell id="AEvw3j2be58xQNeynocf-28" value="" style="endArrow=none;html=1;rounded=0;entryX=0;entryY=0.5;entryDx=0;entryDy=0;" edge="1" parent="1" target="AEvw3j2be58xQNeynocf-23">
          <mxGeometry relative="1" as="geometry">
            <mxPoint x="660" y="379.6" as="sourcePoint" />
            <mxPoint x="820" y="379.6" as="targetPoint" />
          </mxGeometry>
        </mxCell>
        <mxCell id="AEvw3j2be58xQNeynocf-29" value="" style="endArrow=none;html=1;rounded=0;entryX=0;entryY=0.5;entryDx=0;entryDy=0;exitX=1;exitY=0.5;exitDx=0;exitDy=0;" edge="1" parent="1" source="AEvw3j2be58xQNeynocf-22" target="AEvw3j2be58xQNeynocf-27">
          <mxGeometry relative="1" as="geometry">
            <mxPoint x="660" y="539.5999999999999" as="sourcePoint" />
            <mxPoint x="710" y="460" as="targetPoint" />
          </mxGeometry>
        </mxCell>
        <mxCell id="AEvw3j2be58xQNeynocf-30" value="" style="endArrow=none;html=1;rounded=0;entryX=0;entryY=0.5;entryDx=0;entryDy=0;exitX=1;exitY=0.5;exitDx=0;exitDy=0;" edge="1" parent="1" source="AEvw3j2be58xQNeynocf-22" target="AEvw3j2be58xQNeynocf-25">
          <mxGeometry relative="1" as="geometry">
            <mxPoint x="680" y="399.5999999999999" as="sourcePoint" />
            <mxPoint x="730" y="320" as="targetPoint" />
          </mxGeometry>
        </mxCell>
        <mxCell id="AEvw3j2be58xQNeynocf-34" value="" style="endArrow=none;html=1;rounded=0;entryX=0.5;entryY=1;entryDx=0;entryDy=0;" edge="1" parent="1">
          <mxGeometry relative="1" as="geometry">
            <mxPoint x="609.6" y="460" as="sourcePoint" />
            <mxPoint x="609.6" y="400" as="targetPoint" />
          </mxGeometry>
        </mxCell>
        <mxCell id="AEvw3j2be58xQNeynocf-35" value="added" style="shape=rhombus;perimeter=rhombusPerimeter;whiteSpace=wrap;html=1;align=center;" vertex="1" parent="1">
          <mxGeometry x="550" y="460" width="120" height="60" as="geometry" />
        </mxCell>
        <mxCell id="AEvw3j2be58xQNeynocf-36" value="Cart Item" style="whiteSpace=wrap;html=1;align=center;fillColor=#fff2cc;strokeColor=#d6b656;" vertex="1" parent="1">
          <mxGeometry x="560" y="580" width="100" height="40" as="geometry" />
        </mxCell>
        <mxCell id="AEvw3j2be58xQNeynocf-37" value="" style="endArrow=none;html=1;rounded=0;entryX=0.5;entryY=1;entryDx=0;entryDy=0;" edge="1" parent="1">
          <mxGeometry relative="1" as="geometry">
            <mxPoint x="609.5999999999999" y="580" as="sourcePoint" />
            <mxPoint x="609.5999999999999" y="520" as="targetPoint" />
          </mxGeometry>
        </mxCell>
        <mxCell id="AEvw3j2be58xQNeynocf-38" value="cart_ID" style="ellipse;whiteSpace=wrap;html=1;align=center;fontStyle=4;" vertex="1" parent="1">
          <mxGeometry x="710" y="520" width="100" height="40" as="geometry" />
        </mxCell>
        <mxCell id="AEvw3j2be58xQNeynocf-39" value="cart_Price" style="ellipse;whiteSpace=wrap;html=1;align=center;" vertex="1" parent="1">
          <mxGeometry x="710" y="640" width="100" height="40" as="geometry" />
        </mxCell>
        <mxCell id="AEvw3j2be58xQNeynocf-40" value="cart_Quantity" style="ellipse;whiteSpace=wrap;html=1;align=center;" vertex="1" parent="1">
          <mxGeometry x="710" y="580" width="100" height="40" as="geometry" />
        </mxCell>
        <mxCell id="AEvw3j2be58xQNeynocf-41" value="" style="endArrow=none;html=1;rounded=0;entryX=0;entryY=0.5;entryDx=0;entryDy=0;" edge="1" parent="1">
          <mxGeometry relative="1" as="geometry">
            <mxPoint x="660" y="600" as="sourcePoint" />
            <mxPoint x="710" y="540" as="targetPoint" />
          </mxGeometry>
        </mxCell>
        <mxCell id="AEvw3j2be58xQNeynocf-42" value="" style="endArrow=none;html=1;rounded=0;entryX=0;entryY=0.5;entryDx=0;entryDy=0;" edge="1" parent="1">
          <mxGeometry relative="1" as="geometry">
            <mxPoint x="660" y="600" as="sourcePoint" />
            <mxPoint x="710" y="600" as="targetPoint" />
          </mxGeometry>
        </mxCell>
        <mxCell id="AEvw3j2be58xQNeynocf-43" value="" style="endArrow=none;html=1;rounded=0;entryX=0;entryY=0.5;entryDx=0;entryDy=0;exitX=1;exitY=0.5;exitDx=0;exitDy=0;" edge="1" parent="1">
          <mxGeometry relative="1" as="geometry">
            <mxPoint x="660" y="600" as="sourcePoint" />
            <mxPoint x="710" y="660" as="targetPoint" />
          </mxGeometry>
        </mxCell>
        <mxCell id="AEvw3j2be58xQNeynocf-44" value="Customer" style="whiteSpace=wrap;html=1;align=center;fillColor=#fff2cc;strokeColor=#d6b656;" vertex="1" parent="1">
          <mxGeometry x="220" y="360" width="100" height="40" as="geometry" />
        </mxCell>
        <mxCell id="AEvw3j2be58xQNeynocf-45" value="" style="endArrow=none;html=1;rounded=0;entryX=1;entryY=0.5;entryDx=0;entryDy=0;startArrow=none;" edge="1" parent="1" source="AEvw3j2be58xQNeynocf-46" target="AEvw3j2be58xQNeynocf-44">
          <mxGeometry relative="1" as="geometry">
            <mxPoint x="430" y="380" as="sourcePoint" />
            <mxPoint x="470" y="350" as="targetPoint" />
            <Array as="points" />
          </mxGeometry>
        </mxCell>
        <mxCell id="AEvw3j2be58xQNeynocf-52" value="" style="endArrow=none;html=1;rounded=0;entryX=1;entryY=0.5;entryDx=0;entryDy=0;" edge="1" parent="1" target="AEvw3j2be58xQNeynocf-46">
          <mxGeometry relative="1" as="geometry">
            <mxPoint x="560" y="379.6" as="sourcePoint" />
            <mxPoint x="510" y="380" as="targetPoint" />
            <Array as="points">
              <mxPoint x="560" y="379.6" />
            </Array>
          </mxGeometry>
        </mxCell>
        <mxCell id="AEvw3j2be58xQNeynocf-46" value="Buy" style="shape=rhombus;perimeter=rhombusPerimeter;whiteSpace=wrap;html=1;align=center;" vertex="1" parent="1">
          <mxGeometry x="380" y="350" width="120" height="60" as="geometry" />
        </mxCell>
        <mxCell id="AEvw3j2be58xQNeynocf-55" value="" style="endArrow=none;html=1;rounded=0;exitX=0.5;exitY=1;exitDx=0;exitDy=0;" edge="1" parent="1" source="AEvw3j2be58xQNeynocf-65">
          <mxGeometry relative="1" as="geometry">
            <mxPoint x="170" y="380" as="sourcePoint" />
            <mxPoint x="220" y="379.6" as="targetPoint" />
          </mxGeometry>
        </mxCell>
        <mxCell id="AEvw3j2be58xQNeynocf-56" value="customer_ID" style="ellipse;whiteSpace=wrap;html=1;align=center;fontStyle=4;" vertex="1" parent="1">
          <mxGeometry x="290" y="260" width="100" height="40" as="geometry" />
        </mxCell>
        <mxCell id="AEvw3j2be58xQNeynocf-58" value="" style="endArrow=none;html=1;rounded=0;entryX=0.5;entryY=1;entryDx=0;entryDy=0;" edge="1" parent="1" target="AEvw3j2be58xQNeynocf-56">
          <mxGeometry relative="1" as="geometry">
            <mxPoint x="269.6" y="360" as="sourcePoint" />
            <mxPoint x="270" y="320" as="targetPoint" />
          </mxGeometry>
        </mxCell>
        <mxCell id="AEvw3j2be58xQNeynocf-61" value="customer_Email" style="ellipse;whiteSpace=wrap;html=1;align=center;fontStyle=4;" vertex="1" parent="1">
          <mxGeometry x="180" y="260" width="100" height="40" as="geometry" />
        </mxCell>
        <mxCell id="AEvw3j2be58xQNeynocf-62" value="" style="endArrow=none;html=1;rounded=0;exitX=0.5;exitY=1;exitDx=0;exitDy=0;" edge="1" parent="1" source="AEvw3j2be58xQNeynocf-61">
          <mxGeometry relative="1" as="geometry">
            <mxPoint x="110" y="359.2" as="sourcePoint" />
            <mxPoint x="270" y="359.2" as="targetPoint" />
          </mxGeometry>
        </mxCell>
        <mxCell id="AEvw3j2be58xQNeynocf-65" value="customer_Password" style="ellipse;whiteSpace=wrap;html=1;align=center;" vertex="1" parent="1">
          <mxGeometry x="30" y="230" width="120" height="40" as="geometry" />
        </mxCell>
        <mxCell id="AEvw3j2be58xQNeynocf-66" value="first_Name" style="ellipse;whiteSpace=wrap;html=1;align=center;" vertex="1" parent="1">
          <mxGeometry y="300" width="100" height="40" as="geometry" />
        </mxCell>
        <mxCell id="AEvw3j2be58xQNeynocf-67" value="last_name" style="ellipse;whiteSpace=wrap;html=1;align=center;" vertex="1" parent="1">
          <mxGeometry y="360" width="100" height="40" as="geometry" />
        </mxCell>
        <mxCell id="AEvw3j2be58xQNeynocf-68" value="phone_Number" style="ellipse;whiteSpace=wrap;html=1;align=center;" vertex="1" parent="1">
          <mxGeometry y="420" width="100" height="40" as="geometry" />
        </mxCell>
        <mxCell id="AEvw3j2be58xQNeynocf-69" value="" style="endArrow=none;html=1;rounded=0;exitX=0.5;exitY=1;exitDx=0;exitDy=0;entryX=0;entryY=0.5;entryDx=0;entryDy=0;" edge="1" parent="1" target="AEvw3j2be58xQNeynocf-44">
          <mxGeometry relative="1" as="geometry">
            <mxPoint x="100" y="320" as="sourcePoint" />
            <mxPoint x="230" y="429.5999999999999" as="targetPoint" />
          </mxGeometry>
        </mxCell>
        <mxCell id="AEvw3j2be58xQNeynocf-70" value="" style="endArrow=none;html=1;rounded=0;exitX=0.5;exitY=1;exitDx=0;exitDy=0;entryX=0;entryY=0.5;entryDx=0;entryDy=0;" edge="1" parent="1" target="AEvw3j2be58xQNeynocf-44">
          <mxGeometry relative="1" as="geometry">
            <mxPoint x="100" y="380" as="sourcePoint" />
            <mxPoint x="230" y="489.5999999999999" as="targetPoint" />
          </mxGeometry>
        </mxCell>
        <mxCell id="AEvw3j2be58xQNeynocf-71" value="" style="endArrow=none;html=1;rounded=0;exitX=0.5;exitY=1;exitDx=0;exitDy=0;entryX=0;entryY=0.5;entryDx=0;entryDy=0;" edge="1" parent="1" target="AEvw3j2be58xQNeynocf-44">
          <mxGeometry relative="1" as="geometry">
            <mxPoint x="100" y="440" as="sourcePoint" />
            <mxPoint x="230" y="549.5999999999999" as="targetPoint" />
          </mxGeometry>
        </mxCell>
        <mxCell id="AEvw3j2be58xQNeynocf-73" value="" style="endArrow=none;html=1;rounded=0;entryX=0.5;entryY=1;entryDx=0;entryDy=0;" edge="1" parent="1" target="AEvw3j2be58xQNeynocf-44">
          <mxGeometry relative="1" as="geometry">
            <mxPoint x="270" y="480" as="sourcePoint" />
            <mxPoint x="470" y="470" as="targetPoint" />
          </mxGeometry>
        </mxCell>
        <mxCell id="AEvw3j2be58xQNeynocf-74" value="payment" style="shape=rhombus;perimeter=rhombusPerimeter;whiteSpace=wrap;html=1;align=center;" vertex="1" parent="1">
          <mxGeometry x="210" y="480" width="120" height="60" as="geometry" />
        </mxCell>
        <mxCell id="AEvw3j2be58xQNeynocf-75" value="" style="endArrow=none;html=1;rounded=0;entryX=0.5;entryY=1;entryDx=0;entryDy=0;" edge="1" parent="1">
          <mxGeometry relative="1" as="geometry">
            <mxPoint x="269.6" y="620" as="sourcePoint" />
            <mxPoint x="269.6" y="540" as="targetPoint" />
          </mxGeometry>
        </mxCell>
      </root>
    </mxGraphModel>
  </diagram>
</mxfile>
